<svg xmlns="http://www.w3.org/2000/svg" viewBox="0 0 1207.07 959.07"><defs><style>.cls-1{opacity:0;}.cls-2{fill:#f33c25;}.cls-2,.cls-3,.cls-8{stroke:#fff;stroke-miterlimit:10;stroke-width:2px;}.cls-3{fill:#fdae4a;}.cls-4{opacity:0.8;}.cls-5{opacity:0.65;}.cls-6{opacity:0.35;}.cls-7{opacity:0.5;}.cls-8{fill:#e31a1c;}.cls-9{fill:#fff;}.cls-10{font-size:80px;font-family:MinionPro-Semibold, Minion Pro;font-weight:600;}.cls-11,.cls-12,.cls-13,.cls-14,.cls-15{font-size:60px;}.cls-12{letter-spacing:-0.01em;}.cls-13{letter-spacing:0em;}.cls-14{letter-spacing:0em;}.cls-15{letter-spacing:-0.04em;}.cls-16{letter-spacing:0em;}</style></defs><title>conf-matrix_2</title><g id="Layer_2" data-name="Layer 2"><g id="text"><rect class="cls-1" y="0.41" width="1207.07" height="958.66"/><rect class="cls-2" x="427.75" y="111.33" width="110.33" height="110.33"/><rect class="cls-3" x="538.08" y="111.33" width="110.33" height="110.33"/><rect class="cls-2" x="538.08" y="221.67" width="110.33" height="110.33"/><g class="cls-4"><rect class="cls-3" x="648.41" y="221.67" width="110.33" height="110.33"/><rect class="cls-3" x="538.08" y="332" width="110.33" height="110.33"/></g><g class="cls-5"><rect class="cls-3" x="427.75" y="1" width="110.33" height="110.33"/><rect class="cls-3" x="427.75" y="221.67" width="110.33" height="110.33"/><rect class="cls-3" x="869.08" y="442.33" width="110.33" height="110.33"/></g><g class="cls-6"><rect class="cls-3" x="648.41" y="1" width="110.33" height="110.33"/><rect class="cls-3" x="648.41" y="111.33" width="110.33" height="110.33"/><rect class="cls-3" x="317.41" y="221.67" width="110.33" height="110.33"/><rect class="cls-3" x="758.75" y="221.67" width="110.33" height="110.33"/><rect class="cls-3" x="317.41" y="332" width="110.33" height="110.33"/><rect class="cls-3" x="427.75" y="332" width="110.33" height="110.33"/><rect class="cls-3" x="869.08" y="332" width="110.33" height="110.33"/><rect class="cls-3" x="317.41" y="442.33" width="110.33" height="110.33"/><rect class="cls-3" x="427.75" y="442.33" width="110.33" height="110.33"/><rect class="cls-3" x="538.08" y="442.33" width="110.33" height="110.33"/><rect class="cls-3" x="317.41" y="552.67" width="110.33" height="110.33"/><rect class="cls-3" x="648.41" y="552.67" width="110.33" height="110.33"/></g><g class="cls-7"><rect class="cls-3" x="538.08" y="1" width="110.33" height="110.33"/><rect class="cls-3" x="758.75" y="1" width="110.33" height="110.33"/><rect class="cls-3" x="869.08" y="1" width="110.33" height="110.33"/><rect class="cls-3" x="317.41" y="111.33" width="110.33" height="110.33"/><rect class="cls-3" x="758.75" y="111.33" width="110.33" height="110.33"/><rect class="cls-3" x="869.08" y="111.33" width="110.33" height="110.33"/><rect class="cls-3" x="869.08" y="221.67" width="110.33" height="110.33"/><rect class="cls-3" x="758.75" y="332" width="110.33" height="110.33"/><rect class="cls-3" x="648.41" y="442.33" width="110.33" height="110.33"/><rect class="cls-3" x="427.75" y="552.67" width="110.33" height="110.33"/><rect class="cls-3" x="538.08" y="552.67" width="110.33" height="110.33"/><rect class="cls-3" x="758.75" y="552.67" width="110.33" height="110.33"/></g><rect class="cls-8" x="317.41" y="1" width="110.33" height="110.33"/><rect class="cls-8" x="648.41" y="332" width="110.33" height="110.33"/><rect class="cls-8" x="758.75" y="442.33" width="110.33" height="110.33"/><rect class="cls-8" x="869.08" y="552.67" width="110.33" height="110.33"/><path class="cls-9" d="M360.87,40.57c5.95,0,9.46,5.47,9.46,12,0,8.83-4.85,15.07-11.33,17.66a21.47,21.47,0,0,1-6.72,1.54L352,70.33a16.47,16.47,0,0,0,13.68-13.25l-3.22,1.73a5.81,5.81,0,0,1-2.88.76c-5.09,0-8.59-3.74-8.59-8.78,0-4.61,3.6-10.22,9.79-10.22Zm-.72,1.58c-3.65,0-5,4.13-5,7,0,4.22,2.4,7.73,6.43,7.73a7.45,7.45,0,0,0,4.32-1.35,24.88,24.88,0,0,0,.19-3.16c0-4.23-1.25-10.18-5.9-10.18Z"/><path class="cls-9" d="M389.53,62.5V66c0,3.22.19,3.46,4.08,3.79v1.3H381.32v-1.3c4.17-.33,4.37-.62,4.37-3.79V62.5H373.2V61.16c4.56-6.82,9.46-13.92,14.41-20.45h1.92V60.25h4.6V62.5ZM385.69,46h-.1c-3.07,4.32-6.19,8.88-9.36,14.21h9.46Z"/><path d="M485.33,53.07c4.22.82,6.67,3.79,6.67,7.3,0,7.77-9.12,11.33-12.58,11.33a8,8,0,0,1-4.8-1.64,1.85,1.85,0,0,1-.77-1.72A2.71,2.71,0,0,1,475,66.75a.83.83,0,0,1,1.15,0,8.88,8.88,0,0,0,5.95,2.45c3.41,0,5.81-2.54,5.81-7.3a5.9,5.9,0,0,0-6.1-6.19,10.73,10.73,0,0,0-3.07.53l-.33-1.39c4.41-1.4,7.68-3.27,7.68-6.82a4.24,4.24,0,0,0-4.56-4.51c-2.64,0-4.56,2-5.77,3.79l-1-1,2.11-3a8.3,8.3,0,0,1,6.05-2.69h.05c4.32,0,7.15,2.69,7.15,6.33a4.67,4.67,0,0,1-1.49,3.41A21.32,21.32,0,0,1,485.33,53Z"/><path d="M586.65,71.41v-1.3c4.37-.33,4.61-.72,4.61-4.17V47.45c0-2.49-.2-2.73-2.31-2.83l-2.3-.09V43.42a42.67,42.67,0,0,0,8.54-2.49v25c0,3.45.29,3.84,4.66,4.17v1.3Z"/><path d="M703.68,40.64c7.15,0,9.69,8.11,9.69,15.5,0,7-2.54,15.56-9.74,15.56s-9.84-7.92-9.84-15.51c0-7,2.64-15.55,9.84-15.55Zm-.15,1.58c-4.32,0-5.47,7.2-5.47,13.87s1.39,14,5.57,14,5.47-7.2,5.47-13.92-1.2-13.92-5.52-13.92Z"/><path d="M807.31,71.41v-1.3c4.37-.33,4.61-.72,4.61-4.17V47.45c0-2.49-.19-2.73-2.3-2.83l-2.31-.09V43.42a42.57,42.57,0,0,0,8.55-2.49v25c0,3.45.29,3.84,4.65,4.17v1.3Z"/><path d="M917.65,71.41v-1.3c4.37-.33,4.61-.72,4.61-4.17V47.45c0-2.49-.2-2.73-2.31-2.83l-2.3-.09V43.42a42.67,42.67,0,0,0,8.54-2.49v25c0,3.45.29,3.84,4.66,4.17v1.3Z"/><path d="M366,181.5v-1.3c4.37-.33,4.61-.72,4.61-4.17V157.54c0-2.49-.19-2.73-2.31-2.83l-2.3-.09v-1.11a43,43,0,0,0,8.55-2.49v25c0,3.45.28,3.84,4.65,4.17v1.3Z"/><path class="cls-9" d="M471.71,151c4.51,0,7.77,3.22,7.77,7.11a5.92,5.92,0,0,1-1.39,3.84A22.18,22.18,0,0,1,474.3,165c3.31,1.87,6.33,4.17,6.33,8.35,0,5.62-5.42,8.69-9.5,8.69-5.14,0-9.22-3-9.22-8.11a6,6,0,0,1,2.16-4.56,38.84,38.84,0,0,1,4.23-3.08c-3.12-1.77-5.19-4.08-5.19-7.44,0-4,3.41-7.87,8.55-7.87Zm0,29.52c2.88,0,5.13-2.21,5.13-5.9s-3.4-5.67-7.1-7.54a8.2,8.2,0,0,0-3.94,6.58c0,4.41,2.84,6.86,5.86,6.86Zm-.53-28c-2.78,0-4.42,2.49-4.42,4.94,0,3.55,2.84,5.14,6.24,6.82a7.13,7.13,0,0,0,2.93-6c0-4-2.49-5.8-4.7-5.8Z"/><path class="cls-9" d="M503.92,175.16c-.63,2-1.11,4.13-1.69,6.29h-18v-1.1c2.69-2.64,5.38-5.38,7.78-8.16,3-3.55,6-7.49,6-11.62s-2.11-6.38-5.67-6.38c-3.26,0-5.28,2.59-6.52,4.46l-1.06-1,2.74-3.89A8.72,8.72,0,0,1,494,151a7.88,7.88,0,0,1,8.06,8.11c0,4.18-1.92,7-6.34,11.72L488.94,178h9c2.6,0,3.22-.19,4.66-3.22Z"/><path d="M573.4,181.74v-1.29c4.37-.34,4.61-.72,4.61-4.18V157.79c0-2.5-.2-2.74-2.31-2.83l-2.3-.1v-1.11a42,42,0,0,0,8.54-2.49v25c0,3.46.29,3.84,4.66,4.18v1.29Z"/><path d="M608.49,173.2v3.45c0,3.22.19,3.46,4.08,3.8v1.29H600.28v-1.29c4.18-.34,4.37-.63,4.37-3.8V173.2H592.17v-1.35c4.56-6.81,9.45-13.92,14.4-20.45h1.92v19.54h4.61v2.26Zm-3.84-16.47h-.1c-3.07,4.32-6.19,8.88-9.36,14.21h9.46Z"/><path d="M703.68,151c7.15,0,9.69,8.11,9.69,15.51,0,7-2.54,15.55-9.74,15.55s-9.84-7.92-9.84-15.51c0-7,2.64-15.55,9.84-15.55Zm-.15,1.58c-4.32,0-5.47,7.21-5.47,13.88s1.39,14,5.57,14,5.47-7.2,5.47-13.92-1.2-13.93-5.52-13.93Z"/><path d="M823.73,175.45c-.62,2-1.1,4.13-1.68,6.29H804.1v-1.1c2.68-2.64,5.37-5.38,7.77-8.16,3-3.56,6-7.49,6-11.62s-2.11-6.39-5.66-6.39c-3.27,0-5.28,2.6-6.53,4.47l-1.06-1,2.74-3.89a8.74,8.74,0,0,1,6.48-2.83,7.88,7.88,0,0,1,8.07,8.11c0,4.18-1.92,7-6.34,11.71l-6.82,7.16h9c2.59,0,3.22-.2,4.66-3.22Z"/><path d="M917.65,181.74v-1.29c4.37-.34,4.61-.72,4.61-4.18V157.79c0-2.5-.2-2.74-2.31-2.83l-2.3-.1v-1.11a42,42,0,0,0,8.54-2.49v25c0,3.46.29,3.84,4.66,4.18v1.29Z"/><path d="M372.68,261.3c7.15,0,9.69,8.12,9.69,15.51,0,7-2.54,15.55-9.74,15.55s-9.84-7.92-9.84-15.5c0-7,2.64-15.56,9.84-15.56Zm-.15,1.59c-4.32,0-5.47,7.2-5.47,13.87s1.39,14,5.57,14,5.47-7.2,5.47-13.92-1.2-13.92-5.52-13.92Z"/><path d="M485.33,273.74c4.22.81,6.67,3.79,6.67,7.29,0,7.78-9.12,11.33-12.58,11.33a8,8,0,0,1-4.8-1.63,1.86,1.86,0,0,1-.77-1.73,2.69,2.69,0,0,1,1.11-1.58.82.82,0,0,1,1.15,0,8.93,8.93,0,0,0,5.95,2.45c3.41,0,5.81-2.55,5.81-7.3a5.89,5.89,0,0,0-6.1-6.19,10.73,10.73,0,0,0-3.07.53l-.33-1.4c4.41-1.39,7.68-3.26,7.68-6.81a4.25,4.25,0,0,0-4.56-4.52c-2.64,0-4.56,2-5.77,3.8l-1-1,2.11-3a8.3,8.3,0,0,1,6.05-2.69h.05c4.32,0,7.15,2.69,7.15,6.34a4.69,4.69,0,0,1-1.49,3.41,21.32,21.32,0,0,1-3.26,2.59Z"/><path class="cls-9" d="M582,261.23c4.51,0,7.78,3.22,7.78,7.11a5.88,5.88,0,0,1-1.4,3.84,21.74,21.74,0,0,1-3.79,3.07c3.31,1.87,6.34,4.18,6.34,8.35,0,5.62-5.43,8.69-9.51,8.69-5.13,0-9.21-3-9.21-8.11a6,6,0,0,1,2.16-4.56,36.49,36.49,0,0,1,4.22-3.07c-3.12-1.78-5.18-4.09-5.18-7.45,0-4,3.4-7.87,8.54-7.87Zm0,29.52c2.88,0,5.14-2.2,5.14-5.9s-3.41-5.66-7.11-7.54a8.19,8.19,0,0,0-3.93,6.58c0,4.42,2.83,6.86,5.85,6.86Zm-.53-28c-2.78,0-4.41,2.49-4.41,4.94,0,3.55,2.83,5.14,6.24,6.82a7.15,7.15,0,0,0,2.93-5.95c0-4-2.5-5.81-4.71-5.81Z"/><path class="cls-9" d="M604.79,261.23c6,0,9.46,5.47,9.46,12,0,8.84-4.85,15.08-11.33,17.67a21.62,21.62,0,0,1-6.72,1.53L596,291a16.46,16.46,0,0,0,13.68-13.24l-3.22,1.72a5.7,5.7,0,0,1-2.88.77c-5.08,0-8.59-3.74-8.59-8.78,0-4.61,3.6-10.23,9.79-10.23Zm-.72,1.59c-3.65,0-5,4.12-5,7,0,4.22,2.4,7.73,6.43,7.73a7.45,7.45,0,0,0,4.32-1.35A23.3,23.3,0,0,0,610,273c0-4.22-1.24-10.17-5.9-10.17Z"/><path d="M713.37,262.17c-4.51,9.74-9,19.54-13.58,29.42l-3.55.48-.34-.52a258.16,258.16,0,0,0,14.26-26.45H699.79c-3.17,0-3.46.43-4.61,3.6h-1.39c.43-2.64.67-5,.86-7.11H713Z"/><path d="M814,261.3c7.15,0,9.7,8.12,9.7,15.51,0,7-2.55,15.55-9.75,15.55s-9.84-7.92-9.84-15.5c0-7,2.64-15.56,9.84-15.56Zm-.14,1.59c-4.32,0-5.48,7.2-5.48,13.87s1.4,14,5.57,14,5.48-7.2,5.48-13.92-1.21-13.92-5.53-13.92Z"/><path d="M917.65,292.07v-1.29c4.37-.34,4.61-.72,4.61-4.18V268.12c0-2.5-.2-2.74-2.31-2.83l-2.3-.1v-1.1a42,42,0,0,0,8.54-2.5v25c0,3.46.29,3.84,4.66,4.18v1.29Z"/><path d="M372.68,371.64c7.15,0,9.69,8.11,9.69,15.5,0,7-2.54,15.56-9.74,15.56s-9.84-7.92-9.84-15.51c0-7,2.64-15.55,9.84-15.55Zm-.15,1.58c-4.32,0-5.47,7.2-5.47,13.87s1.39,14,5.57,14,5.47-7.2,5.47-13.92-1.2-13.92-5.52-13.92Z"/><path d="M483,371.64c7.15,0,9.7,8.11,9.7,15.5,0,7-2.55,15.56-9.75,15.56s-9.84-7.92-9.84-15.51c0-7,2.64-15.55,9.84-15.55Zm-.14,1.58c-4.32,0-5.48,7.2-5.48,13.87s1.4,14,5.57,14c4.32,0,5.48-7.2,5.48-13.92s-1.21-13.92-5.53-13.92Z"/><path d="M591.42,384.21a7.55,7.55,0,0,1,3-.81,8.51,8.51,0,0,1,8.64,8.88c0,5.71-4.08,10.56-9.84,10.56s-9.84-4.61-9.84-12A18.63,18.63,0,0,1,595.79,373a41.91,41.91,0,0,1,6.15-1.54l.33,1.54a22.71,22.71,0,0,0-5.23,1.68,15.49,15.49,0,0,0-8.83,11.09Zm1.11,1.88a9.85,9.85,0,0,0-4.56,1.34,13.67,13.67,0,0,0-.29,3.31c0,5.76,2.45,10.47,6.38,10.47,3.75,0,4.9-4,4.9-7.2,0-4-2-7.92-6.38-7.92Z"/><path class="cls-9" d="M692.25,371.57c6,0,9.46,5.47,9.46,12,0,8.83-4.85,15.07-11.33,17.66a21.41,21.41,0,0,1-6.72,1.54l-.24-1.44a16.46,16.46,0,0,0,13.68-13.25l-3.22,1.73a5.78,5.78,0,0,1-2.88.76c-5.08,0-8.59-3.74-8.59-8.78,0-4.61,3.6-10.22,9.79-10.22Zm-.72,1.58c-3.65,0-5,4.13-5,7,0,4.22,2.4,7.73,6.43,7.73a7.45,7.45,0,0,0,4.32-1.35,23.22,23.22,0,0,0,.2-3.16c0-4.23-1.25-10.18-5.91-10.18Z"/><path class="cls-9" d="M724.75,395.76c-.62,2-1.1,4.13-1.68,6.29h-18v-1.11c2.68-2.64,5.37-5.37,7.77-8.16,3-3.55,6-7.49,6-11.61s-2.11-6.39-5.66-6.39c-3.27,0-5.28,2.59-6.53,4.47l-1.06-1,2.74-3.89a8.7,8.7,0,0,1,6.48-2.83,7.89,7.89,0,0,1,8.07,8.11c0,4.17-1.92,7-6.34,11.71l-6.82,7.15h9c2.59,0,3.22-.19,4.65-3.21Z"/><path d="M823.73,396.12c-.62,2-1.1,4.13-1.68,6.29H804.1V401.3c2.68-2.64,5.37-5.37,7.77-8.16,3-3.55,6-7.49,6-11.61s-2.11-6.39-5.66-6.39c-3.27,0-5.28,2.59-6.53,4.47l-1.06-1,2.74-3.89a8.7,8.7,0,0,1,6.48-2.83,7.88,7.88,0,0,1,8.07,8.11c0,4.17-1.92,7-6.34,11.71l-6.82,7.15h9c2.59,0,3.22-.19,4.66-3.21Z"/><path d="M924.34,371.64c7.16,0,9.7,8.11,9.7,15.5,0,7-2.54,15.56-9.74,15.56s-9.85-7.92-9.85-15.51c0-7,2.65-15.55,9.85-15.55Zm-.14,1.58c-4.32,0-5.47,7.2-5.47,13.87s1.39,14,5.57,14,5.47-7.2,5.47-13.92-1.2-13.92-5.52-13.92Z"/><path d="M372.68,482c7.15,0,9.69,8.11,9.69,15.51,0,7-2.54,15.55-9.74,15.55s-9.84-7.92-9.84-15.51c0-7,2.64-15.55,9.84-15.55Zm-.15,1.58c-4.32,0-5.47,7.21-5.47,13.88s1.39,14,5.57,14,5.47-7.2,5.47-13.92-1.2-13.93-5.52-13.93Z"/><path d="M483,482c7.15,0,9.7,8.11,9.7,15.51,0,7-2.55,15.55-9.75,15.55s-9.84-7.92-9.84-15.51c0-7,2.64-15.55,9.84-15.55Zm-.14,1.58c-4.32,0-5.48,7.21-5.48,13.88s1.4,14,5.57,14c4.32,0,5.48-7.2,5.48-13.92s-1.21-13.93-5.53-13.93Z"/><path d="M593.34,482c7.16,0,9.7,8.11,9.7,15.51,0,7-2.54,15.55-9.74,15.55s-9.85-7.92-9.85-15.51c0-7,2.65-15.55,9.85-15.55Zm-.14,1.58c-4.32,0-5.47,7.21-5.47,13.88s1.39,14,5.57,14,5.47-7.2,5.47-13.92-1.2-13.93-5.52-13.93Z"/><path d="M713.4,506.45c-.63,2-1.11,4.13-1.68,6.29h-18v-1.1c2.69-2.64,5.38-5.38,7.78-8.16,3-3.56,6-7.49,6-11.62s-2.11-6.39-5.66-6.39c-3.27,0-5.28,2.6-6.53,4.47l-1.06-1,2.74-3.89a8.72,8.72,0,0,1,6.48-2.83,7.88,7.88,0,0,1,8.06,8.11c0,4.18-1.92,7-6.33,11.71l-6.82,7.16h9c2.59,0,3.21-.2,4.65-3.22Z"/><path class="cls-9" d="M802.2,481.9c5.95,0,9.46,5.47,9.46,12,0,8.83-4.85,15.07-11.33,17.66a21.41,21.41,0,0,1-6.72,1.54l-.24-1.44a16.46,16.46,0,0,0,13.68-13.25l-3.22,1.73a5.7,5.7,0,0,1-2.88.77c-5.08,0-8.59-3.75-8.59-8.79,0-4.61,3.6-10.22,9.79-10.22Zm-.72,1.58c-3.65,0-5,4.13-5,7,0,4.23,2.4,7.73,6.43,7.73a7.44,7.44,0,0,0,4.32-1.34,23.4,23.4,0,0,0,.19-3.17c0-4.22-1.24-10.18-5.9-10.18Z"/><path class="cls-9" d="M830.86,503.84v3.45c0,3.22.19,3.46,4.08,3.79v1.3H822.65v-1.3c4.18-.33,4.37-.62,4.37-3.79v-3.45H814.54v-1.35c4.56-6.81,9.45-13.92,14.4-20.45h1.92v19.54h4.61v2.26ZM827,487.37h-.1c-3.07,4.32-6.19,8.88-9.36,14.21H827Z"/><path d="M930.1,504.12v3.46c0,3.22.2,3.46,4.08,3.79v1.3H921.89v-1.3c4.18-.33,4.37-.62,4.37-3.79v-3.46H913.78v-1.34c4.56-6.82,9.46-13.92,14.4-20.45h1.92v19.54h4.61v2.25Zm-3.84-16.46h-.09c-3.07,4.32-6.2,8.88-9.36,14.21h9.45Z"/><path d="M372.68,592.3c7.15,0,9.69,8.12,9.69,15.51,0,7-2.54,15.55-9.74,15.55s-9.84-7.92-9.84-15.5c0-7,2.64-15.56,9.84-15.56Zm-.15,1.59c-4.32,0-5.47,7.2-5.47,13.87s1.39,14,5.57,14,5.47-7.2,5.47-13.92-1.2-13.92-5.52-13.92Z"/><path d="M492.73,616.79c-.62,2-1.1,4.12-1.68,6.28H473.1V622c2.68-2.64,5.37-5.38,7.77-8.16,3-3.55,6-7.49,6-11.62s-2.11-6.38-5.66-6.38c-3.27,0-5.28,2.59-6.53,4.46l-1.06-1,2.74-3.89a8.74,8.74,0,0,1,6.48-2.83,7.88,7.88,0,0,1,8.07,8.11c0,4.18-1.92,7-6.34,11.72l-6.82,7.15h9c2.59,0,3.22-.19,4.66-3.22Z"/><path d="M586.65,623.07v-1.29c4.37-.34,4.61-.72,4.61-4.18V599.12c0-2.5-.2-2.74-2.31-2.83l-2.3-.1v-1.1a42,42,0,0,0,8.54-2.5v25c0,3.46.29,3.84,4.66,4.18v1.29Z"/><path d="M703.68,592.3c7.15,0,9.69,8.12,9.69,15.51,0,7-2.54,15.55-9.74,15.55s-9.84-7.92-9.84-15.5c0-7,2.64-15.56,9.84-15.56Zm-.15,1.59c-4.32,0-5.47,7.2-5.47,13.87s1.39,14,5.57,14,5.47-7.2,5.47-13.92-1.2-13.92-5.52-13.92Z"/><path d="M823.73,616.79c-.62,2-1.1,4.12-1.68,6.28H804.1V622c2.68-2.64,5.37-5.38,7.77-8.16,3-3.55,6-7.49,6-11.62s-2.11-6.38-5.66-6.38c-3.27,0-5.28,2.59-6.53,4.46l-1.06-1,2.74-3.89a8.74,8.74,0,0,1,6.48-2.83,7.88,7.88,0,0,1,8.07,8.11c0,4.18-1.92,7-6.34,11.72l-6.82,7.15h9c2.59,0,3.22-.19,4.66-3.22Z"/><path class="cls-9" d="M913.14,592.23c6,0,9.45,5.47,9.45,12,0,8.84-4.85,15.08-11.33,17.67a21.62,21.62,0,0,1-6.72,1.53L904.3,622A16.44,16.44,0,0,0,918,608.75l-3.21,1.72a5.75,5.75,0,0,1-2.88.77c-5.09,0-8.6-3.74-8.6-8.78,0-4.61,3.6-10.23,9.8-10.23Zm-.72,1.59c-3.65,0-5,4.12-5,7,0,4.22,2.4,7.73,6.44,7.73a7.45,7.45,0,0,0,4.32-1.35,25.14,25.14,0,0,0,.19-3.17c0-4.22-1.25-10.17-5.91-10.17Z"/><path class="cls-9" d="M930.56,605.19a20.09,20.09,0,0,1,5.38-1.44c6.14,0,9.26,4.18,9.26,8.11,0,2.89-1.34,5.62-4.27,8a14.65,14.65,0,0,1-8.35,3.41,8.16,8.16,0,0,1-5-1.68c-.62-.67-.86-1.06-.77-1.63a3,3,0,0,1,1-1.59.93.93,0,0,1,1.3,0,8.65,8.65,0,0,0,5.9,2.45c4.08,0,6.1-3.5,6.1-7.1,0-4.23-2.59-7.25-7.83-7.25a14.08,14.08,0,0,0-4.94,1l1.87-14.64H944l.29.38L943,596.31H931.81Z"/><path d="M212.22,64.18c-.29,1.59-1.25,6.1-1.68,7.59H187.4V70.42c4.37-.33,4.75-.72,4.75-4.6V46.71c0-4.32-.38-4.46-4.13-4.8V40.57h21.41c0,1.2.24,4.46.39,6.91l-1.4.24a12.48,12.48,0,0,0-1.53-4.13c-.67-1-2-1.34-5.43-1.34h-3.65c-1.48,0-1.58.09-1.58,1.53v10.9h4.51c4.32,0,4.56-.39,5.19-3.6h1.39v9.21h-1.39c-.63-3.45-1-3.74-5.14-3.74h-4.56v9.07c0,2.26.29,3.27,1.15,3.89s2.59.63,5,.63c3.64,0,5-.39,6-1.64A14,14,0,0,0,210.78,64Z"/><path d="M258.59,41.91c-3.32.43-3.75.82-5.19,4.8-1.1,3.07-4,12.14-7.92,25.59H244c-2.64-7.73-6-17-8.4-24h-.09c-2.69,8.45-5.38,16.18-7.83,24h-1.49c-2.54-8.69-5.23-17.14-7.87-25.69-1.2-3.93-1.92-4.32-4.85-4.7V40.57h11.67v1.34c-3.51.43-3.6.82-2.88,3.26,1.87,6.48,3.74,13,5.85,19.78h.1c2.54-8.16,5.33-16.08,7.78-23.9h1.39c2.69,7.87,5.47,15.64,8.4,24h.09c2-6.43,4.66-15.84,5.43-19.25.67-2.88.48-3.41-3.31-3.84V40.57h10.61Z"/><path d="M276,47.86c-.87-3.07-2.11-6.38-6.29-6.38a5,5,0,0,0-5.33,5.28c0,3.5,2.31,5.13,6.1,7.1s8.3,4.18,8.3,9.56c0,5-4.27,9.07-10.65,9.07a17,17,0,0,1-4.71-.72,16,16,0,0,1-2.35-1,60.31,60.31,0,0,1-1.3-7.44l1.4-.34c.76,2.93,2.92,7.78,7.87,7.78,3.6,0,5.76-2.26,5.76-5.76s-2.64-5.23-6.24-7.15c-3.07-1.64-7.92-4-7.92-9.46,0-4.61,3.69-8.54,9.89-8.54a19.77,19.77,0,0,1,6,1.1c.2,1.73.44,3.6.82,6.62Z"/><path d="M257.1,174.32c-.29,1.49-1.3,6.05-1.73,7.54H233.62v-1.35c4-.28,4.42-.62,4.42-4.7v-19.2c0-4.08-.34-4.32-4.23-4.61v-1.34h12.53V152c-3.79.29-4.22.53-4.22,4.61v19c0,2.59.24,3.55,1.1,4a10.66,10.66,0,0,0,4.61.63c2.64,0,4.27-.24,5.38-1.49a14.11,14.11,0,0,0,2.45-4.71Z"/><path d="M276,158c-.87-3.07-2.11-6.38-6.29-6.38a5,5,0,0,0-5.33,5.28c0,3.5,2.31,5.13,6.1,7.1s8.3,4.18,8.3,9.56c0,5-4.27,9.07-10.65,9.07a17,17,0,0,1-4.71-.72,16,16,0,0,1-2.35-1,60.31,60.31,0,0,1-1.3-7.44l1.4-.34c.76,2.93,2.92,7.78,7.87,7.78,3.6,0,5.76-2.26,5.76-5.76s-2.64-5.23-6.24-7.15c-3.07-1.64-7.92-4-7.92-9.46,0-4.61,3.69-8.54,9.89-8.54a19.89,19.89,0,0,1,6.05,1.1c.19,1.73.43,3.6.81,6.62Z"/><path d="M243.66,292.43v-1.34c3.88-.38,4.08-.62,4-5.71l-.15-19.59h-.19L235.64,292.1h-1l-10.75-25.64h-.1l-.72,13.69c-.19,3.93-.19,6-.14,8,.09,2.31,1.24,2.64,4.41,3v1.34H216.2v-1.34c2.78-.34,3.74-.86,4.08-2.88.24-1.68.53-3.79.91-8.78l.67-10c.43-6.24.19-6.43-4.17-6.86v-1.35h7.87l10.94,24,11.09-24h8.16v1.35c-4.22.38-4.56.48-4.41,5.42l.48,17.38c.14,5.09.29,5.33,4.46,5.71v1.34Z"/><path d="M276,268.53c-.87-3.07-2.11-6.39-6.29-6.39a5,5,0,0,0-5.33,5.28c0,3.51,2.31,5.14,6.1,7.11s8.3,4.18,8.3,9.55c0,5-4.27,9.07-10.65,9.07a16.6,16.6,0,0,1-4.71-.72,16.28,16.28,0,0,1-2.35-1,60.31,60.31,0,0,1-1.3-7.44l1.4-.34c.76,2.93,2.92,7.78,7.87,7.78,3.6,0,5.76-2.26,5.76-5.76s-2.64-5.24-6.24-7.16c-3.07-1.63-7.92-4-7.92-9.45,0-4.61,3.69-8.55,9.89-8.55a19.77,19.77,0,0,1,6,1.11c.2,1.72.44,3.6.82,6.62Z"/><path d="M198.82,402.77v-1.35c3.89-.38,4.08-.62,4-5.71l-.15-19.58h-.19l-11.71,26.3h-1L179.09,376.8H179l-.72,13.68c-.2,3.94-.2,6-.15,8,.1,2.3,1.25,2.64,4.42,3v1.35H171.36v-1.35c2.79-.33,3.75-.86,4.08-2.88.24-1.68.53-3.79.92-8.78l.67-10c.43-6.24.19-6.43-4.18-6.86v-1.34h7.88l10.94,24,11.09-24h8.16v1.34c-4.22.38-4.56.48-4.42,5.42l.48,17.38c.15,5.09.29,5.33,4.47,5.71v1.35Z"/><path d="M243.32,394.85a50.14,50.14,0,0,1-2.74,7.34,40.07,40.07,0,0,1-8.83,1.3c-11.95,0-17.19-8.26-17.19-15.89,0-10.08,7.78-16.76,18.49-16.76a37.84,37.84,0,0,1,8.49,1.3c.39,2.74.67,4.66,1,7.25l-1.44.34c-1.25-5.09-4.13-7.16-9.31-7.16-8,0-12.29,6.77-12.29,14.07,0,9,5.28,15.12,12.58,15.12,4.89,0,7.49-2.64,9.89-7.44Z"/><path d="M278.74,372.91c-2.88.19-4,.86-4.22,2.83a74.72,74.72,0,0,0-.24,7.78v3.93c0,5.67-.87,9.75-3.65,12.68a11.81,11.81,0,0,1-8.59,3.31,12.52,12.52,0,0,1-7.68-2.3c-2.88-2.21-4.23-5.81-4.23-11.43V377.76c0-4.32-.38-4.51-4.17-4.85v-1.34h12.43v1.34c-3.79.24-4.18.53-4.18,4.85v10.9c0,7.72,3.08,12.14,9,12.14,6.91,0,9.07-5.76,9.07-13.68v-3.6a59.52,59.52,0,0,0-.34-7.92c-.28-1.87-1.29-2.45-4.65-2.69v-1.34h11.42Z"/><path d="M243.32,505.18a50.73,50.73,0,0,1-2.74,7.35,40.82,40.82,0,0,1-8.83,1.29c-11.95,0-17.19-8.26-17.19-15.89,0-10.08,7.78-16.75,18.49-16.75a37.25,37.25,0,0,1,8.49,1.3c.39,2.73.67,4.65,1,7.24l-1.44.34c-1.25-5.09-4.13-7.15-9.31-7.15-8,0-12.29,6.77-12.29,14.06,0,9,5.28,15.12,12.58,15.12,4.89,0,7.49-2.64,9.89-7.44Z"/><path d="M278.74,483.24c-2.88.2-4,.87-4.22,2.83a74.86,74.86,0,0,0-.24,7.78v3.94c0,5.66-.87,9.74-3.65,12.67a11.76,11.76,0,0,1-8.59,3.31,12.52,12.52,0,0,1-7.68-2.3c-2.88-2.21-4.23-5.81-4.23-11.43v-12c0-4.32-.38-4.51-4.17-4.85V481.9h12.43v1.34c-3.79.24-4.18.53-4.18,4.85V499c0,7.73,3.08,12.14,9,12.14,6.91,0,9.07-5.76,9.07-13.68v-3.6a59.63,59.63,0,0,0-.34-7.92c-.28-1.87-1.29-2.45-4.65-2.69V481.9h11.42Z"/><path d="M211.4,615.85c-.29,1.58-1.25,6.1-1.68,7.59H186.58v-1.35c4.37-.34,4.75-.72,4.75-4.61v-19.1c0-4.32-.38-4.47-4.13-4.8v-1.35h21.41c0,1.2.24,4.47.39,6.91l-1.39.24a12.62,12.62,0,0,0-1.54-4.12c-.67-1-2-1.35-5.42-1.35H197c-1.49,0-1.59.1-1.59,1.54v10.9h4.52c4.32,0,4.56-.39,5.18-3.61h1.39V612h-1.39c-.62-3.45-1-3.74-5.14-3.74h-4.56v9.07c0,2.26.29,3.26,1.16,3.89s2.59.62,5,.62c3.65,0,5-.38,6.05-1.63a14.22,14.22,0,0,0,2.35-4.51Z"/><path d="M243.32,615.51a50.29,50.29,0,0,1-2.74,7.35,40.07,40.07,0,0,1-8.83,1.3c-11.95,0-17.19-8.26-17.19-15.89,0-10.08,7.78-16.76,18.49-16.76a37.84,37.84,0,0,1,8.49,1.3c.39,2.73.67,4.65,1,7.25l-1.44.33c-1.25-5.09-4.13-7.15-9.31-7.15-8,0-12.29,6.77-12.29,14.07,0,9,5.28,15.12,12.58,15.12,4.89,0,7.49-2.64,9.89-7.44Z"/><path d="M278.74,593.58c-2.88.19-4,.86-4.22,2.83a74.58,74.58,0,0,0-.24,7.78v3.93c0,5.67-.87,9.75-3.65,12.67a11.77,11.77,0,0,1-8.59,3.32,12.47,12.47,0,0,1-7.68-2.31c-2.88-2.21-4.23-5.81-4.23-11.42v-12c0-4.32-.38-4.51-4.17-4.84v-1.35h12.43v1.35c-3.79.24-4.18.52-4.18,4.84v10.9c0,7.73,3.08,12.15,9,12.15,6.91,0,9.07-5.76,9.07-13.69v-3.59a59.71,59.71,0,0,0-.34-7.93c-.28-1.87-1.29-2.44-4.65-2.68v-1.35h11.42Z"/><path d="M380.6,760.85c1.58.29,6.09,1.25,7.58,1.68v23.14h-1.34c-.34-4.37-.72-4.75-4.61-4.75H363.12c-4.32,0-4.46.38-4.8,4.13H357V763.64c1.2,0,4.46-.24,6.91-.39l.24,1.39a12.78,12.78,0,0,0-4.13,1.54c-1,.67-1.34,2-1.34,5.42v3.65c0,1.49.1,1.59,1.54,1.59h10.89v-4.52c0-4.32-.38-4.56-3.6-5.18v-1.39h9.22v1.39c-3.46.62-3.74,1-3.74,5.14v4.56H382c2.25,0,3.26-.29,3.89-1.16s.62-2.59.62-5c0-3.65-.38-5-1.63-6.05a14.22,14.22,0,0,0-4.51-2.35Z"/><path d="M358.32,714.48c.44,3.31.82,3.75,4.8,5.19,3.08,1.1,12.15,4,25.59,7.92v1.48c-7.73,2.64-17,6-23.95,8.41v.09c8.45,2.69,16.17,5.38,23.95,7.83v1.48c-8.69,2.55-17.14,5.24-25.68,7.88-3.94,1.2-4.32,1.92-4.71,4.85H357V747.94h1.34c.44,3.5.82,3.6,3.27,2.88,6.48-1.87,13-3.74,19.78-5.86v-.09c-8.16-2.55-16.09-5.33-23.91-7.78V735.7c7.87-2.69,15.65-5.47,24-8.4v-.1c-6.43-2-15.84-4.65-19.25-5.42-2.88-.67-3.4-.48-3.84,3.31H357V714.48Z"/><path d="M364.28,697.11c-3.08.86-6.39,2.11-6.39,6.29a5,5,0,0,0,5.28,5.33c3.51,0,5.14-2.31,7.11-6.1s4.17-8.31,9.55-8.31c5,0,9.07,4.28,9.07,10.66a16.66,16.66,0,0,1-.72,4.71,16,16,0,0,1-1,2.35,58.08,58.08,0,0,1-7.44,1.29l-.33-1.39c2.93-.77,7.77-2.93,7.77-7.87,0-3.6-2.25-5.76-5.76-5.76s-5.23,2.64-7.15,6.24c-1.63,3.07-4,7.92-9.46,7.92-4.6,0-8.54-3.7-8.54-9.89a20.14,20.14,0,0,1,1.1-6.05c1.73-.19,3.6-.43,6.63-.81Z"/><path d="M491,716c1.49.29,6,1.3,7.54,1.73v21.75h-1.35c-.29-4-.62-4.42-4.7-4.42h-19.2c-4.08,0-4.33.33-4.61,4.22h-1.35V726.72h1.35c.28,3.8.53,4.23,4.61,4.23h19c2.59,0,3.55-.24,4-1.11a10.66,10.66,0,0,0,.62-4.6c0-2.64-.24-4.28-1.48-5.38a13.93,13.93,0,0,0-4.71-2.45Z"/><path d="M474.61,697.11c-3.07.86-6.38,2.11-6.38,6.29a5,5,0,0,0,5.28,5.33c3.5,0,5.13-2.31,7.1-6.1s4.18-8.31,9.55-8.31c5,0,9.08,4.28,9.08,10.66a14.45,14.45,0,0,1-1.73,7.06,58.73,58.73,0,0,1-7.44,1.29l-.34-1.39c2.93-.77,7.78-2.93,7.78-7.87,0-3.6-2.26-5.76-5.76-5.76s-5.24,2.64-7.16,6.24c-1.63,3.07-4,7.92-9.45,7.92-4.61,0-8.55-3.7-8.55-9.89a19.83,19.83,0,0,1,1.11-6.05c1.73-.19,3.6-.43,6.62-.81Z"/><path d="M608.85,729.41H607.5c-.38-3.89-.62-4.08-5.71-4l-19.58.14v.19l26.3,11.72v1l-25.63,10.75v.1l13.68.72c3.94.19,6.05.19,8,.14,2.3-.1,2.64-1.25,3-4.42h1.35v11.19H607.5c-.33-2.79-.86-3.75-2.88-4.08-1.67-.24-3.79-.53-8.78-.91l-10-.68c-6.24-.43-6.44-.19-6.87,4.18h-1.34v-7.87l24-11-24-11.09v-8.16H579c.38,4.23.48,4.56,5.42,4.42l17.38-.48c5.09-.14,5.33-.29,5.71-4.46h1.35Z"/><path d="M584.94,697.11c-3.07.86-6.38,2.11-6.38,6.29a5,5,0,0,0,5.28,5.33c3.5,0,5.14-2.31,7.1-6.1s4.18-8.31,9.56-8.31c5,0,9.07,4.28,9.07,10.66a16.66,16.66,0,0,1-.72,4.71,16,16,0,0,1-1,2.35,58.73,58.73,0,0,1-7.44,1.29l-.34-1.39c2.93-.77,7.78-2.93,7.78-7.87,0-3.6-2.26-5.76-5.76-5.76s-5.23,2.64-7.15,6.24c-1.63,3.07-4,7.92-9.46,7.92-4.61,0-8.54-3.7-8.54-9.89a19.84,19.84,0,0,1,1.1-6.05c1.73-.19,3.6-.43,6.63-.81Z"/><path d="M719.18,774.24h-1.34c-.39-3.88-.63-4.08-5.71-4l-19.59.15v.19l26.31,11.71v1L693.21,794v.1l13.68.72c3.94.19,6.05.19,8,.14,2.31-.09,2.64-1.24,3-4.41h1.34V801.7h-1.34c-.34-2.78-.87-3.74-2.88-4.08-1.68-.24-3.79-.53-8.79-.91l-10-.67c-6.24-.43-6.43-.19-6.87,4.17H688v-7.87l24-10.94-24-11.09v-8.16h1.34c.39,4.22.48,4.56,5.43,4.41l17.38-.48c5.08-.14,5.32-.28,5.71-4.46h1.34Z"/><path d="M711.26,729.75a52,52,0,0,1,7.35,2.73,41,41,0,0,1,1.29,8.84c0,11.95-8.25,17.18-15.89,17.18-10.08,0-16.75-7.77-16.75-18.48a38,38,0,0,1,1.3-8.5c2.73-.38,4.65-.67,7.24-1l.34,1.44c-5.09,1.25-7.15,4.13-7.15,9.32,0,8,6.77,12.29,14.06,12.29,9,0,15.12-5.28,15.12-12.58,0-4.9-2.64-7.49-7.44-9.89Z"/><path d="M689.32,694.32c.2,2.88.87,4,2.84,4.23a77.62,77.62,0,0,0,7.77.24h3.94c5.66,0,9.74.86,12.67,3.65a11.76,11.76,0,0,1,3.31,8.59,12.54,12.54,0,0,1-2.3,7.68c-2.21,2.88-5.81,4.22-11.42,4.22h-12c-4.32,0-4.51.39-4.85,4.18H688V714.68h1.34c.24,3.79.53,4.17,4.85,4.17h10.9c7.73,0,12.14-3.07,12.14-9,0-6.91-5.76-9.07-13.68-9.07h-3.6a62.23,62.23,0,0,0-7.92.33c-1.87.29-2.45,1.3-2.69,4.66H688V694.32Z"/><path d="M821.59,729.75a51.5,51.5,0,0,1,7.35,2.73,40.28,40.28,0,0,1,1.3,8.84c0,11.95-8.26,17.18-15.89,17.18-10.08,0-16.76-7.77-16.76-18.48a38,38,0,0,1,1.3-8.5c2.74-.38,4.66-.67,7.25-1l.33,1.44c-5.08,1.25-7.15,4.13-7.15,9.32,0,8,6.77,12.29,14.07,12.29,9,0,15.12-5.28,15.12-12.58,0-4.9-2.64-7.49-7.44-9.89Z"/><path d="M799.66,694.32c.19,2.88.86,4,2.83,4.23,1.3.14,3.36.24,7.78.24h3.93c5.67,0,9.75.86,12.68,3.65a11.81,11.81,0,0,1,3.31,8.59,12.49,12.49,0,0,1-2.31,7.68c-2.2,2.88-5.81,4.22-11.42,4.22h-12c-4.32,0-4.52.39-4.85,4.18h-1.35V714.68h1.35c.24,3.79.53,4.17,4.85,4.17H815.4c7.73,0,12.15-3.07,12.15-9,0-6.91-5.76-9.07-13.68-9.07h-3.6a62,62,0,0,0-7.92.33c-1.88.29-2.45,1.3-2.69,4.66h-1.35V694.32Z"/><path d="M932.26,761.67c1.59.29,6.1,1.25,7.59,1.68v23.14H938.5c-.33-4.37-.71-4.76-4.6-4.76H914.79c-4.32,0-4.46.39-4.8,4.13h-1.34V764.45c1.2,0,4.46-.24,6.91-.38l.24,1.39a12.24,12.24,0,0,0-4.13,1.54c-1,.67-1.34,2-1.34,5.42v3.65c0,1.49.09,1.58,1.53,1.58h10.9v-4.51c0-4.32-.39-4.56-3.6-5.18v-1.4h9.22V768c-3.46.62-3.75,1-3.75,5.13v4.56h9.07c2.26,0,3.27-.28,3.89-1.15s.63-2.59.63-5c0-3.65-.39-5-1.64-6a14,14,0,0,0-4.51-2.35Z"/><path d="M931.93,729.75a51.35,51.35,0,0,1,7.34,2.73,40.28,40.28,0,0,1,1.3,8.84c0,11.95-8.26,17.18-15.89,17.18-10.08,0-16.75-7.77-16.75-18.48a38.11,38.11,0,0,1,1.29-8.5c2.74-.38,4.66-.67,7.25-1l.34,1.44c-5.09,1.25-7.16,4.13-7.16,9.32,0,8,6.77,12.29,14.07,12.29,9,0,15.12-5.28,15.12-12.58,0-4.9-2.64-7.49-7.44-9.89Z"/><path d="M910,694.32c.19,2.88.86,4,2.83,4.23,1.3.14,3.36.24,7.78.24h3.94c5.66,0,9.74.86,12.67,3.65a11.81,11.81,0,0,1,3.31,8.59,12.54,12.54,0,0,1-2.3,7.68c-2.21,2.88-5.81,4.22-11.43,4.22H914.84c-4.32,0-4.51.39-4.85,4.18h-1.34V714.68H910c.24,3.79.53,4.17,4.85,4.17h10.9c7.72,0,12.14-3.07,12.14-9,0-6.91-5.76-9.07-13.68-9.07h-3.6a62.11,62.11,0,0,0-7.92.33c-1.87.29-2.45,1.3-2.69,4.66h-1.34V694.32Z"/><text class="cls-10" transform="translate(373.92 920.32)">P<tspan class="cls-11" x="46.88" y="0">RE</tspan><tspan class="cls-12" x="120.2" y="0">DI</tspan><tspan class="cls-13" x="185.78" y="0">CTED</tspan><tspan x="343.64" y="0" xml:space="preserve"> L</tspan><tspan class="cls-13" x="405" y="0">A</tspan><tspan class="cls-14" x="447" y="0">B</tspan><tspan class="cls-11" x="483.96" y="0">EL</tspan></text><text class="cls-10" transform="translate(92.07 598.58) rotate(-90)">T<tspan class="cls-15" x="50.56" y="0">R</tspan><tspan class="cls-11" x="87.1" y="0">UE</tspan><tspan class="cls-16" x="165.52" y="0" xml:space="preserve"> L</tspan><tspan class="cls-11" x="226.88" y="0">A</tspan><tspan class="cls-14" x="268.88" y="0">B</tspan><tspan class="cls-13" x="305.84" y="0">EL</tspan></text></g></g></svg>