<svg xmlns="http://www.w3.org/2000/svg" xmlns:xlink="http://www.w3.org/1999/xlink" viewBox="0 0 332.4 206.6"><defs><style>.cls-1,.cls-3,.cls-4{fill:none;}.cls-2{clip-path:url(#clip-path);}.cls-3,.cls-4{stroke:#a7a7a7;stroke-width:0.5px;}.cls-3{stroke-dasharray:1 1;}.cls-4{stroke-linecap:square;}.cls-5{clip-path:url(#clip-path-2);}.cls-10,.cls-6{font-size:10px;fill:#444;}.cls-10,.cls-35,.cls-6{font-family:MinionPro-Regular, Minion Pro;}.cls-6{letter-spacing:-0.01em;}.cls-7{letter-spacing:-0.03em;}.cls-8{letter-spacing:0em;}.cls-9{clip-path:url(#clip-path-3);}.cls-11{clip-path:url(#clip-path-4);}.cls-12{clip-path:url(#clip-path-5);}.cls-13{letter-spacing:-0.01em;}.cls-14{clip-path:url(#clip-path-6);}.cls-15{clip-path:url(#clip-path-7);}.cls-16{clip-path:url(#clip-path-8);}.cls-17{clip-path:url(#clip-path-9);}.cls-18{clip-path:url(#clip-path-10);}.cls-19{clip-path:url(#clip-path-11);}.cls-20{clip-path:url(#clip-path-12);}.cls-21{clip-path:url(#clip-path-13);}.cls-22{clip-path:url(#clip-path-14);}.cls-23{isolation:isolate;}.cls-24{fill:#858685;}.cls-25{clip-path:url(#clip-path-17);}.cls-26{clip-path:url(#clip-path-18);}.cls-27{clip-path:url(#clip-path-21);}.cls-28{clip-path:url(#clip-path-22);}.cls-29{clip-path:url(#clip-path-25);}.cls-30{clip-path:url(#clip-path-26);}.cls-31{clip-path:url(#clip-path-29);}.cls-32{clip-path:url(#clip-path-30);}.cls-33{clip-path:url(#clip-path-34);}.cls-34{clip-path:url(#clip-path-35);}.cls-35{font-size:12px;fill:#fff;}.cls-36{clip-path:url(#clip-path-37);}.cls-37{clip-path:url(#clip-path-38);}.cls-38{clip-path:url(#clip-path-40);}.cls-39{clip-path:url(#clip-path-41);}.cls-40{clip-path:url(#clip-path-43);}.cls-41{clip-path:url(#clip-path-44);}.cls-42{clip-path:url(#clip-path-46);}.cls-43{clip-path:url(#clip-path-47);}.cls-44{clip-path:url(#clip-path-49);}.cls-45{clip-path:url(#clip-path-50);}</style><clipPath id="clip-path" transform="translate(-0.47 -9.65)"><rect class="cls-1" width="334.75" height="215"/></clipPath><clipPath id="clip-path-2" transform="translate(-0.47 -9.65)"><rect class="cls-1" x="2.15" y="20" width="22.68" height="12"/></clipPath><clipPath id="clip-path-3" transform="translate(-0.47 -9.65)"><rect class="cls-1" x="11.71" y="52" width="13.12" height="12"/></clipPath><clipPath id="clip-path-4" transform="translate(-0.47 -9.65)"><rect class="cls-1" x="8.18" y="84" width="16.65" height="12"/></clipPath><clipPath id="clip-path-5" transform="translate(-0.47 -9.65)"><rect class="cls-1" y="116" width="24.83" height="12"/></clipPath><clipPath id="clip-path-6" transform="translate(-0.47 -9.65)"><rect class="cls-1" x="7.82" y="148" width="17.01" height="12"/></clipPath><clipPath id="clip-path-7" transform="translate(-0.47 -9.65)"><rect class="cls-1" x="2.14" y="180" width="22.69" height="12"/></clipPath><clipPath id="clip-path-8" transform="translate(-0.47 -9.65)"><rect class="cls-1" x="30.18" y="204" width="7.8" height="11"/></clipPath><clipPath id="clip-path-9" transform="translate(-0.47 -9.65)"><rect class="cls-1" x="100.77" y="204" width="12.6" height="11"/></clipPath><clipPath id="clip-path-10" transform="translate(-0.47 -9.65)"><rect class="cls-1" x="173.76" y="204" width="12.6" height="11"/></clipPath><clipPath id="clip-path-11" transform="translate(-0.47 -9.65)"><rect class="cls-1" x="246.76" y="204" width="12.6" height="11"/></clipPath><clipPath id="clip-path-12" transform="translate(-0.47 -9.65)"><rect class="cls-1" x="317.35" y="204" width="17.4" height="11"/></clipPath><clipPath id="clip-path-13" transform="translate(-0.47 -9.65)"><path class="cls-1" d="M34.47,13.65h9.15a5.35,5.35,0,0,1,1.67.14,1.74,1.74,0,0,1,1,1,5.46,5.46,0,0,1,.14,1.69V36.8a5.39,5.39,0,0,1-.14,1.67,1.78,1.78,0,0,1-1,1,5.39,5.39,0,0,1-1.68.14H34.47Z"/></clipPath><clipPath id="clip-path-14" transform="translate(-0.47 -9.65)"><rect class="cls-1" x="34.47" y="13.65" width="12" height="26"/></clipPath><clipPath id="clip-path-17" transform="translate(-0.47 -9.65)"><path class="cls-1" d="M34.47,45.65H35.6a1.87,1.87,0,0,1,1.87,1.86h0V69.78a1.87,1.87,0,0,1-1.87,1.87H34.47Z"/></clipPath><clipPath id="clip-path-18" transform="translate(-0.47 -9.65)"><rect class="cls-1" x="34.47" y="45.65" width="3" height="26"/></clipPath><clipPath id="clip-path-21" transform="translate(-0.47 -9.65)"><path class="cls-1" d="M34.47,76.65h2.14a1.92,1.92,0,0,1,1.85,1.86c0,.09,0,.14,0,.14v23s0,0,0,.13a1.91,1.91,0,0,1-1.85,1.86H34.47Z"/></clipPath><clipPath id="clip-path-22" transform="translate(-0.47 -9.65)"><rect class="cls-1" x="34.47" y="76.65" width="4" height="27"/></clipPath><clipPath id="clip-path-25" transform="translate(-0.47 -9.65)"><path class="cls-1" d="M34.47,140.65h0c.55,0,1,.83,1,1.86h0v22.27c0,1-.45,1.87-1,1.87h0Z"/></clipPath><clipPath id="clip-path-26" transform="translate(-0.47 -9.65)"><rect class="cls-1" x="34.47" y="140.65" width="1" height="26"/></clipPath><clipPath id="clip-path-29" transform="translate(-0.47 -9.65)"><path class="cls-1" d="M34.47,171.65h267a5.82,5.82,0,0,1,1.74.14,1.79,1.79,0,0,1,1.07,1.08,5.48,5.48,0,0,1,.15,1.75v21.07a5.35,5.35,0,0,1-.15,1.73,1.79,1.79,0,0,1-1.07,1.08,5.48,5.48,0,0,1-1.75.15h-267Z"/></clipPath><clipPath id="clip-path-30" transform="translate(-0.47 -9.65)"><rect class="cls-1" x="34.47" y="171.65" width="270" height="27"/></clipPath><clipPath id="clip-path-34" transform="translate(-0.47 -9.65)"><rect class="cls-1" x="271.47" y="175.65" width="45" height="17"/></clipPath><clipPath id="clip-path-35" transform="translate(-0.47 -9.65)"><rect class="cls-1" x="274.47" y="178.65" width="27" height="13"/></clipPath><clipPath id="clip-path-37" transform="translate(-0.47 -9.65)"><rect class="cls-1" x="33.47" y="143.65" width="39" height="17"/></clipPath><clipPath id="clip-path-38" transform="translate(-0.47 -9.65)"><rect class="cls-1" x="36.47" y="147.65" width="22" height="12"/></clipPath><clipPath id="clip-path-40" transform="translate(-0.47 -9.65)"><rect class="cls-1" x="32.47" y="112.65" width="39" height="17"/></clipPath><clipPath id="clip-path-41" transform="translate(-0.47 -9.65)"><rect class="cls-1" x="35.47" y="115.65" width="22" height="12"/></clipPath><clipPath id="clip-path-43" transform="translate(-0.47 -9.65)"><rect class="cls-1" x="33.47" y="80.65" width="39" height="17"/></clipPath><clipPath id="clip-path-44" transform="translate(-0.47 -9.65)"><rect class="cls-1" x="36.47" y="83.65" width="22" height="13"/></clipPath><clipPath id="clip-path-46" transform="translate(-0.47 -9.65)"><rect class="cls-1" x="33.47" y="48.65" width="39" height="17"/></clipPath><clipPath id="clip-path-47" transform="translate(-0.47 -9.65)"><rect class="cls-1" x="36.47" y="52.65" width="22" height="12"/></clipPath><clipPath id="clip-path-49" transform="translate(-0.47 -9.65)"><rect class="cls-1" x="33.47" y="17.65" width="39" height="17"/></clipPath><clipPath id="clip-path-50" transform="translate(-0.47 -9.65)"><rect class="cls-1" x="36.47" y="20.65" width="22" height="12"/></clipPath></defs><title>1_25_ecu</title><g id="Layer_2" data-name="Layer 2"><g id="Layer_1-2" data-name="Layer 1"><g class="cls-2"><line class="cls-3" x1="106.5" x2="106.5" y2="192"/><line class="cls-3" x1="179.5" x2="179.5" y2="192"/><line class="cls-3" x1="252.5" x2="252.5" y2="192"/><line class="cls-3" x1="325.5" x2="325.5" y2="192"/><line class="cls-4" x1="33.5" y1="192.5" x2="33.5" y2="0.5"/></g><g class="cls-5"><text class="cls-6" transform="translate(3 19)">E<tspan class="cls-7" x="5.56" y="0">W</tspan><tspan class="cls-8" x="14.94" y="0">S</tspan></text></g><g class="cls-9"><text class="cls-10" transform="translate(13 51)">LS</text></g><g class="cls-11"><text class="cls-10" transform="translate(9 83)">MS</text></g><g class="cls-12"><text class="cls-10" transform="translate(0 115)"><tspan class="cls-13">M</tspan><tspan x="8.83" y="0">CU</tspan></text></g><g class="cls-14"><text class="cls-10" transform="translate(9 147)">CU</text></g><g class="cls-15"><text class="cls-10" transform="translate(3 179)">ECU</text></g><g class="cls-16"><text class="cls-10" transform="translate(31 203)">0</text></g><g class="cls-17"><text class="cls-10" transform="translate(102 203)">25</text></g><g class="cls-18"><text class="cls-10" transform="translate(175 203)">50</text></g><g class="cls-19"><text class="cls-10" transform="translate(248 203)">75</text></g><g class="cls-20"><text class="cls-10" transform="translate(318 203)">100</text></g><g class="cls-21"><g class="cls-22"><g class="cls-23"><g class="cls-22"><g class="cls-22"><rect class="cls-24" x="34" y="4" width="12" height="26"/></g></g></g></g></g><g class="cls-25"><g class="cls-26"><g class="cls-23"><g class="cls-26"><g class="cls-26"><rect class="cls-24" x="34" y="36" width="3" height="26"/></g></g></g></g></g><g class="cls-27"><g class="cls-28"><g class="cls-23"><g class="cls-28"><g class="cls-28"><rect class="cls-24" x="34" y="67" width="4" height="27"/></g></g></g></g></g><g class="cls-29"><g class="cls-30"><g class="cls-23"><g class="cls-30"><g class="cls-30"><rect class="cls-24" x="34" y="131" width="1" height="26"/></g></g></g></g></g><g class="cls-31"><g class="cls-32"><g class="cls-23"><g class="cls-32"><g class="cls-32"><rect class="cls-24" x="34" y="162" width="270" height="27"/></g></g></g></g></g><g class="cls-2"><g class="cls-23"><g class="cls-33"><g class="cls-34"><text class="cls-35" transform="translate(275 178)">92.47</text></g></g></g></g><g class="cls-2"><g class="cls-23"><g class="cls-36"><g class="cls-37"><text class="cls-35" transform="translate(37 146)">0.57</text></g></g></g></g><g class="cls-2"><g class="cls-23"><g class="cls-38"><g class="cls-39"><text class="cls-35" transform="translate(36 115)">0.07</text></g></g></g></g><g class="cls-2"><g class="cls-23"><g class="cls-40"><g class="cls-41"><text class="cls-35" transform="translate(37 83)">1.56</text></g></g></g></g><g class="cls-2"><g class="cls-23"><g class="cls-42"><g class="cls-43"><text class="cls-35" transform="translate(37 51)">1.07</text></g></g></g></g><g class="cls-2"><g class="cls-23"><g class="cls-44"><g class="cls-45"><text class="cls-35" transform="translate(37 20)">4.26</text></g></g></g></g></g></g></svg>