<svg xmlns="http://www.w3.org/2000/svg" xmlns:xlink="http://www.w3.org/1999/xlink" viewBox="0 0 332.4 206.6"><defs><style>.cls-1,.cls-3,.cls-4{fill:none;}.cls-2{clip-path:url(#clip-path);}.cls-3,.cls-4{stroke:#a7a7a7;stroke-width:0.5px;}.cls-3{stroke-dasharray:1 1;}.cls-4{stroke-linecap:square;}.cls-5{clip-path:url(#clip-path-2);}.cls-10,.cls-6{font-size:10px;fill:#444;}.cls-10,.cls-27,.cls-6{font-family:MinionPro-Regular, Minion Pro;}.cls-6{letter-spacing:-0.01em;}.cls-7{letter-spacing:-0.03em;}.cls-8{letter-spacing:0em;}.cls-9{clip-path:url(#clip-path-3);}.cls-11{clip-path:url(#clip-path-4);}.cls-12{clip-path:url(#clip-path-5);}.cls-13{letter-spacing:-0.01em;}.cls-14{clip-path:url(#clip-path-6);}.cls-15{clip-path:url(#clip-path-7);}.cls-16{clip-path:url(#clip-path-8);}.cls-17{clip-path:url(#clip-path-9);}.cls-18{clip-path:url(#clip-path-10);}.cls-19{clip-path:url(#clip-path-11);}.cls-20{clip-path:url(#clip-path-12);}.cls-21{clip-path:url(#clip-path-13);}.cls-22{clip-path:url(#clip-path-14);}.cls-23{isolation:isolate;}.cls-24{fill:#858685;}.cls-25{clip-path:url(#clip-path-18);}.cls-26{clip-path:url(#clip-path-19);}.cls-27{font-size:12px;fill:#fff;}.cls-28{clip-path:url(#clip-path-21);}.cls-29{clip-path:url(#clip-path-22);}.cls-30{clip-path:url(#clip-path-24);}.cls-31{clip-path:url(#clip-path-25);}.cls-32{clip-path:url(#clip-path-27);}.cls-33{clip-path:url(#clip-path-28);}.cls-34{clip-path:url(#clip-path-30);}.cls-35{clip-path:url(#clip-path-31);}.cls-36{clip-path:url(#clip-path-33);}.cls-37{clip-path:url(#clip-path-34);}</style><clipPath id="clip-path" transform="translate(-0.75 -9.57)"><rect class="cls-1" width="334.75" height="215"/></clipPath><clipPath id="clip-path-2" transform="translate(-0.75 -9.57)"><rect class="cls-1" x="2.15" y="20" width="22.68" height="12"/></clipPath><clipPath id="clip-path-3" transform="translate(-0.75 -9.57)"><rect class="cls-1" x="11.71" y="52" width="13.12" height="12"/></clipPath><clipPath id="clip-path-4" transform="translate(-0.75 -9.57)"><rect class="cls-1" x="8.18" y="84" width="16.65" height="12"/></clipPath><clipPath id="clip-path-5" transform="translate(-0.75 -9.57)"><rect class="cls-1" y="116" width="24.83" height="12"/></clipPath><clipPath id="clip-path-6" transform="translate(-0.75 -9.57)"><rect class="cls-1" x="7.82" y="148" width="17.01" height="12"/></clipPath><clipPath id="clip-path-7" transform="translate(-0.75 -9.57)"><rect class="cls-1" x="2.14" y="180" width="22.69" height="12"/></clipPath><clipPath id="clip-path-8" transform="translate(-0.75 -9.57)"><rect class="cls-1" x="30.18" y="204" width="7.8" height="11"/></clipPath><clipPath id="clip-path-9" transform="translate(-0.75 -9.57)"><rect class="cls-1" x="100.77" y="204" width="12.6" height="11"/></clipPath><clipPath id="clip-path-10" transform="translate(-0.75 -9.57)"><rect class="cls-1" x="173.76" y="204" width="12.6" height="11"/></clipPath><clipPath id="clip-path-11" transform="translate(-0.75 -9.57)"><rect class="cls-1" x="246.76" y="204" width="12.6" height="11"/></clipPath><clipPath id="clip-path-12" transform="translate(-0.75 -9.57)"><rect class="cls-1" x="317.35" y="204" width="17.4" height="11"/></clipPath><clipPath id="clip-path-13" transform="translate(-0.75 -9.57)"><path class="cls-1" d="M34.75,76.57h288a5.71,5.71,0,0,1,1.73.14,1.8,1.8,0,0,1,1.08,1.08,5.48,5.48,0,0,1,.15,1.75v21.07a5.35,5.35,0,0,1-.15,1.73,1.8,1.8,0,0,1-1.08,1.08,5.42,5.42,0,0,1-1.75.15h-288Z"/></clipPath><clipPath id="clip-path-14" transform="translate(-0.75 -9.57)"><rect class="cls-1" x="34.75" y="76.57" width="291" height="27"/></clipPath><clipPath id="clip-path-18" transform="translate(-0.75 -9.57)"><rect class="cls-1" x="32.75" y="175.57" width="39" height="17"/></clipPath><clipPath id="clip-path-19" transform="translate(-0.75 -9.57)"><rect class="cls-1" x="35.75" y="178.57" width="22" height="13"/></clipPath><clipPath id="clip-path-21" transform="translate(-0.75 -9.57)"><rect class="cls-1" x="32.75" y="143.57" width="39" height="17"/></clipPath><clipPath id="clip-path-22" transform="translate(-0.75 -9.57)"><rect class="cls-1" x="35.75" y="147.57" width="22" height="12"/></clipPath><clipPath id="clip-path-24" transform="translate(-0.75 -9.57)"><rect class="cls-1" x="32.75" y="112.57" width="39" height="17"/></clipPath><clipPath id="clip-path-25" transform="translate(-0.75 -9.57)"><rect class="cls-1" x="35.75" y="115.57" width="22" height="13"/></clipPath><clipPath id="clip-path-27" transform="translate(-0.75 -9.57)"><rect class="cls-1" x="291.75" y="80.57" width="45" height="17"/></clipPath><clipPath id="clip-path-28" transform="translate(-0.75 -9.57)"><rect class="cls-1" x="294.75" y="83.57" width="28" height="13"/></clipPath><clipPath id="clip-path-30" transform="translate(-0.75 -9.57)"><rect class="cls-1" x="32.75" y="48.57" width="39" height="17"/></clipPath><clipPath id="clip-path-31" transform="translate(-0.75 -9.57)"><rect class="cls-1" x="35.75" y="52.57" width="22" height="12"/></clipPath><clipPath id="clip-path-33" transform="translate(-0.75 -9.57)"><rect class="cls-1" x="32.75" y="17.57" width="39" height="17"/></clipPath><clipPath id="clip-path-34" transform="translate(-0.75 -9.57)"><rect class="cls-1" x="35.75" y="20.57" width="22" height="13"/></clipPath></defs><title>1_26_ms</title><g id="Layer_2" data-name="Layer 2"><g id="Layer_1-2" data-name="Layer 1"><g class="cls-2"><line class="cls-3" x1="106.5" x2="106.5" y2="192"/><line class="cls-3" x1="179.5" x2="179.5" y2="192"/><line class="cls-3" x1="252.5" x2="252.5" y2="192"/><line class="cls-3" x1="325.5" x2="325.5" y2="192"/><line class="cls-4" x1="33.5" y1="192.5" x2="33.5" y2="0.5"/></g><g class="cls-5"><text class="cls-6" transform="translate(3 19)">E<tspan class="cls-7" x="5.56" y="0">W</tspan><tspan class="cls-8" x="14.94" y="0">S</tspan></text></g><g class="cls-9"><text class="cls-10" transform="translate(12 51)">LS</text></g><g class="cls-11"><text class="cls-10" transform="translate(9 83)">MS</text></g><g class="cls-12"><text class="cls-10" transform="translate(0 115)"><tspan class="cls-13">M</tspan><tspan x="8.83" y="0">CU</tspan></text></g><g class="cls-14"><text class="cls-10" transform="translate(9 147)">CU</text></g><g class="cls-15"><text class="cls-10" transform="translate(3 179)">ECU</text></g><g class="cls-16"><text class="cls-10" transform="translate(31 203)">0</text></g><g class="cls-17"><text class="cls-10" transform="translate(102 203)">25</text></g><g class="cls-18"><text class="cls-10" transform="translate(175 203)">50</text></g><g class="cls-19"><text class="cls-10" transform="translate(248 203)">75</text></g><g class="cls-20"><text class="cls-10" transform="translate(318 203)">100</text></g><g class="cls-21"><g class="cls-22"><g class="cls-23"><g class="cls-22"><g class="cls-22"><rect class="cls-24" x="34" y="67" width="291" height="27"/></g></g></g></g></g><g class="cls-2"><g class="cls-23"><g class="cls-25"><g class="cls-26"><text class="cls-27" transform="translate(36 178)">0.00</text></g></g></g></g><g class="cls-2"><g class="cls-23"><g class="cls-28"><g class="cls-29"><text class="cls-27" transform="translate(36 146)">0.00</text></g></g></g></g><g class="cls-2"><g class="cls-23"><g class="cls-30"><g class="cls-31"><text class="cls-27" transform="translate(36 115)">0.20</text></g></g></g></g><g class="cls-2"><g class="cls-23"><g class="cls-32"><g class="cls-33"><text class="cls-27" transform="translate(295 83)">99.72</text></g></g></g></g><g class="cls-2"><g class="cls-23"><g class="cls-34"><g class="cls-35"><text class="cls-27" transform="translate(36 51)">0.08</text></g></g></g></g><g class="cls-2"><g class="cls-23"><g class="cls-36"><g class="cls-37"><text class="cls-27" transform="translate(36 20)">0.00</text></g></g></g></g></g></g></svg>