<svg xmlns="http://www.w3.org/2000/svg" xmlns:xlink="http://www.w3.org/1999/xlink" viewBox="0 0 333.4 206.35"><defs><style>.cls-1,.cls-3,.cls-4{fill:none;}.cls-2{clip-path:url(#clip-path);}.cls-3,.cls-4{stroke:#a7a7a7;stroke-width:0.5px;}.cls-3{stroke-dasharray:1 1;}.cls-4{stroke-linecap:square;}.cls-5{clip-path:url(#clip-path-2);}.cls-10,.cls-6{font-size:10px;fill:#444;}.cls-10,.cls-35,.cls-6{font-family:MinionPro-Regular, Minion Pro;}.cls-6{letter-spacing:-0.01em;}.cls-7{letter-spacing:-0.03em;}.cls-8{letter-spacing:0em;}.cls-9{clip-path:url(#clip-path-3);}.cls-11{clip-path:url(#clip-path-4);}.cls-12{clip-path:url(#clip-path-5);}.cls-13{letter-spacing:-0.01em;}.cls-14{clip-path:url(#clip-path-6);}.cls-15{clip-path:url(#clip-path-7);}.cls-16{clip-path:url(#clip-path-8);}.cls-17{clip-path:url(#clip-path-9);}.cls-18{clip-path:url(#clip-path-10);}.cls-19{clip-path:url(#clip-path-11);}.cls-20{clip-path:url(#clip-path-12);}.cls-21{clip-path:url(#clip-path-13);}.cls-22{clip-path:url(#clip-path-14);}.cls-23{isolation:isolate;}.cls-24{fill:#858685;}.cls-25{clip-path:url(#clip-path-17);}.cls-26{clip-path:url(#clip-path-18);}.cls-27{clip-path:url(#clip-path-21);}.cls-28{clip-path:url(#clip-path-22);}.cls-29{clip-path:url(#clip-path-25);}.cls-30{clip-path:url(#clip-path-26);}.cls-31{clip-path:url(#clip-path-29);}.cls-32{clip-path:url(#clip-path-30);}.cls-33{clip-path:url(#clip-path-34);}.cls-34{clip-path:url(#clip-path-35);}.cls-35{font-size:12px;fill:#fff;}.cls-36{clip-path:url(#clip-path-37);}.cls-37{clip-path:url(#clip-path-38);}.cls-38{clip-path:url(#clip-path-40);}.cls-39{clip-path:url(#clip-path-41);}.cls-40{clip-path:url(#clip-path-43);}.cls-41{clip-path:url(#clip-path-44);}.cls-42{clip-path:url(#clip-path-46);}.cls-43{clip-path:url(#clip-path-47);}.cls-44{clip-path:url(#clip-path-49);}.cls-45{clip-path:url(#clip-path-50);}</style><clipPath id="clip-path" transform="translate(-0.13 -9.43)"><rect class="cls-1" width="334.75" height="215"/></clipPath><clipPath id="clip-path-2" transform="translate(-0.13 -9.43)"><rect class="cls-1" x="2.15" y="20" width="22.68" height="12"/></clipPath><clipPath id="clip-path-3" transform="translate(-0.13 -9.43)"><rect class="cls-1" x="11.71" y="52" width="13.12" height="12"/></clipPath><clipPath id="clip-path-4" transform="translate(-0.13 -9.43)"><rect class="cls-1" x="8.18" y="84" width="16.65" height="12"/></clipPath><clipPath id="clip-path-5" transform="translate(-0.13 -9.43)"><rect class="cls-1" y="116" width="24.83" height="12"/></clipPath><clipPath id="clip-path-6" transform="translate(-0.13 -9.43)"><rect class="cls-1" x="7.82" y="148" width="17.01" height="12"/></clipPath><clipPath id="clip-path-7" transform="translate(-0.13 -9.43)"><rect class="cls-1" x="2.14" y="180" width="22.69" height="12"/></clipPath><clipPath id="clip-path-8" transform="translate(-0.13 -9.43)"><rect class="cls-1" x="30.18" y="204" width="7.8" height="11"/></clipPath><clipPath id="clip-path-9" transform="translate(-0.13 -9.43)"><rect class="cls-1" x="100.77" y="204" width="12.6" height="11"/></clipPath><clipPath id="clip-path-10" transform="translate(-0.13 -9.43)"><rect class="cls-1" x="173.76" y="204" width="12.6" height="11"/></clipPath><clipPath id="clip-path-11" transform="translate(-0.13 -9.43)"><rect class="cls-1" x="246.76" y="204" width="12.6" height="11"/></clipPath><clipPath id="clip-path-12" transform="translate(-0.13 -9.43)"><rect class="cls-1" x="317.35" y="204" width="17.4" height="11"/></clipPath><clipPath id="clip-path-13" transform="translate(-0.13 -9.43)"><path class="cls-1" d="M34.13,13.18h0c.55,0,1,.87,1,1.94h0V38.25c0,1.07-.45,1.93-1,1.93h0Z"/></clipPath><clipPath id="clip-path-14" transform="translate(-0.13 -9.43)"><rect class="cls-1" x="34.13" y="13.18" width="1" height="27"/></clipPath><clipPath id="clip-path-17" transform="translate(-0.13 -9.43)"><path class="cls-1" d="M34.13,45.18h262a5.35,5.35,0,0,1,1.73.15A1.79,1.79,0,0,1,299,46.4a5.48,5.48,0,0,1,.15,1.75V69.22A5.45,5.45,0,0,1,299,71,1.83,1.83,0,0,1,297.9,72a5.79,5.79,0,0,1-1.75.14h-262Z"/></clipPath><clipPath id="clip-path-18" transform="translate(-0.13 -9.43)"><rect class="cls-1" x="34.13" y="45.18" width="265" height="27"/></clipPath><clipPath id="clip-path-21" transform="translate(-0.13 -9.43)"><path class="cls-1" d="M34.13,77.18H52.28a5.39,5.39,0,0,1,1.67.14,1.78,1.78,0,0,1,1,1A5.39,5.39,0,0,1,55.13,80v20.29A5.42,5.42,0,0,1,55,102a1.74,1.74,0,0,1-1,1,5.42,5.42,0,0,1-1.68.14H34.13Z"/></clipPath><clipPath id="clip-path-22" transform="translate(-0.13 -9.43)"><rect class="cls-1" x="34.13" y="77.18" width="21" height="26"/></clipPath><clipPath id="clip-path-25" transform="translate(-0.13 -9.43)"><path class="cls-1" d="M34.13,108.18h.06a1.94,1.94,0,0,1,1.94,1.94h0v23.13a1.93,1.93,0,0,1-1.94,1.93h-.06Z"/></clipPath><clipPath id="clip-path-26" transform="translate(-0.13 -9.43)"><rect class="cls-1" x="34.13" y="108.18" width="2" height="27"/></clipPath><clipPath id="clip-path-29" transform="translate(-0.13 -9.43)"><path class="cls-1" d="M34.13,172.18h.13a1.87,1.87,0,0,1,1.87,1.87h0v22.27a1.87,1.87,0,0,1-1.87,1.86h-.13Z"/></clipPath><clipPath id="clip-path-30" transform="translate(-0.13 -9.43)"><rect class="cls-1" x="34.13" y="172.18" width="2" height="26"/></clipPath><clipPath id="clip-path-34" transform="translate(-0.13 -9.43)"><rect class="cls-1" x="33.13" y="176.18" width="39" height="17"/></clipPath><clipPath id="clip-path-35" transform="translate(-0.13 -9.43)"><rect class="cls-1" x="36.13" y="179.18" width="22" height="12"/></clipPath><clipPath id="clip-path-37" transform="translate(-0.13 -9.43)"><rect class="cls-1" x="32.13" y="144.18" width="39" height="17"/></clipPath><clipPath id="clip-path-38" transform="translate(-0.13 -9.43)"><rect class="cls-1" x="35.13" y="147.18" width="22" height="13"/></clipPath><clipPath id="clip-path-40" transform="translate(-0.13 -9.43)"><rect class="cls-1" x="33.13" y="112.18" width="39" height="17"/></clipPath><clipPath id="clip-path-41" transform="translate(-0.13 -9.43)"><rect class="cls-1" x="36.13" y="115.18" width="22" height="13"/></clipPath><clipPath id="clip-path-43" transform="translate(-0.13 -9.43)"><rect class="cls-1" x="33.13" y="81.18" width="39" height="17"/></clipPath><clipPath id="clip-path-44" transform="translate(-0.13 -9.43)"><rect class="cls-1" x="36.13" y="84.18" width="22" height="12"/></clipPath><clipPath id="clip-path-46" transform="translate(-0.13 -9.43)"><rect class="cls-1" x="266.13" y="49.18" width="45" height="17"/></clipPath><clipPath id="clip-path-47" transform="translate(-0.13 -9.43)"><rect class="cls-1" x="269.13" y="52.18" width="28" height="13"/></clipPath><clipPath id="clip-path-49" transform="translate(-0.13 -9.43)"><rect class="cls-1" x="33.13" y="17.18" width="39" height="17"/></clipPath><clipPath id="clip-path-50" transform="translate(-0.13 -9.43)"><rect class="cls-1" x="36.13" y="20.18" width="22" height="13"/></clipPath></defs><title>1_17_ls</title><g id="Layer_2" data-name="Layer 2"><g id="Layer_1-2" data-name="Layer 1"><g class="cls-2"><line class="cls-3" x1="106.5" y1="0.75" x2="106.5" y2="192.75"/><line class="cls-3" x1="179.5" y1="0.75" x2="179.5" y2="192.75"/><line class="cls-3" x1="252.5" y1="0.75" x2="252.5" y2="192.75"/><line class="cls-3" x1="325.5" y1="0.75" x2="325.5" y2="192.75"/><line class="cls-4" x1="33.5" y1="192.25" x2="33.5" y2="0.25"/></g><g class="cls-5"><text class="cls-6" transform="translate(4 18.75)">E<tspan class="cls-7" x="5.56" y="0">W</tspan><tspan class="cls-8" x="14.94" y="0">S</tspan></text></g><g class="cls-9"><text class="cls-10" transform="translate(13 50.75)">LS</text></g><g class="cls-11"><text class="cls-10" transform="translate(10 82.75)">MS</text></g><g class="cls-12"><text class="cls-10" transform="translate(0 114.75)"><tspan class="cls-13">M</tspan><tspan x="8.83" y="0">CU</tspan></text></g><g class="cls-14"><text class="cls-10" transform="translate(9 146.75)">CU</text></g><g class="cls-15"><text class="cls-10" transform="translate(4 178.75)">ECU</text></g><g class="cls-16"><text class="cls-10" transform="translate(32 202.75)">0</text></g><g class="cls-17"><text class="cls-10" transform="translate(102 202.75)">25</text></g><g class="cls-18"><text class="cls-10" transform="translate(175 202.75)">50</text></g><g class="cls-19"><text class="cls-10" transform="translate(248 202.75)">75</text></g><g class="cls-20"><text class="cls-10" transform="translate(319 202.75)">100</text></g><g class="cls-21"><g class="cls-22"><g class="cls-23"><g class="cls-22"><g class="cls-22"><rect class="cls-24" x="34" y="3.75" width="1" height="27"/></g></g></g></g></g><g class="cls-25"><g class="cls-26"><g class="cls-23"><g class="cls-26"><g class="cls-26"><rect class="cls-24" x="34" y="35.75" width="265" height="27"/></g></g></g></g></g><g class="cls-27"><g class="cls-28"><g class="cls-23"><g class="cls-28"><g class="cls-28"><rect class="cls-24" x="34" y="67.75" width="21" height="26"/></g></g></g></g></g><g class="cls-29"><g class="cls-30"><g class="cls-23"><g class="cls-30"><g class="cls-30"><rect class="cls-24" x="34" y="98.75" width="2" height="27"/></g></g></g></g></g><g class="cls-31"><g class="cls-32"><g class="cls-23"><g class="cls-32"><g class="cls-32"><rect class="cls-24" x="34" y="162.75" width="2" height="26"/></g></g></g></g></g><g class="cls-2"><g class="cls-23"><g class="cls-33"><g class="cls-34"><text class="cls-35" transform="translate(37 178.75)">0.66</text></g></g></g></g><g class="cls-2"><g class="cls-23"><g class="cls-36"><g class="cls-37"><text class="cls-35" transform="translate(36 146.75)">0.16</text></g></g></g></g><g class="cls-2"><g class="cls-23"><g class="cls-38"><g class="cls-39"><text class="cls-35" transform="translate(37 114.75)">0.61</text></g></g></g></g><g class="cls-2"><g class="cls-23"><g class="cls-40"><g class="cls-41"><text class="cls-35" transform="translate(37 83.75)">7.24</text></g></g></g></g><g class="cls-2"><g class="cls-23"><g class="cls-42"><g class="cls-43"><text class="cls-35" transform="translate(270 51.75)">90.82</text></g></g></g></g><g class="cls-2"><g class="cls-23"><g class="cls-44"><g class="cls-45"><text class="cls-35" transform="translate(37 19.75)">0.52</text></g></g></g></g></g></g></svg>